<svg width="199" height="40" viewBox="0 0 199 40" fill="none" xmlns="http://www.w3.org/2000/svg">
<g clip-path="url(#clip0_16_104)">
<path opacity="0.54" d="M59.7308 30.4599H56.0083V9.92894H72.9145V12.4514H59.7313V19.192H71.6225V21.6561H59.7313V30.4599L59.7308 30.4599ZM79.914 12.8837C79.0266 13.5155 77.6331 13.6148 76.5861 13.1208C75.5392 12.6268 75.1305 11.6771 75.6102 10.853C76.09 10.0288 77.3242 9.55969 78.558 9.73273C79.7917 9.90576 80.6811 10.6727 80.682 11.5642C80.6939 12.0608 80.4147 12.5386 79.9109 12.8837H79.914ZM79.914 30.4599H76.1914V16.4097H79.914V30.4599ZM88.0826 30.4599H84.3601V16.4097H87.9184V18.7037H88.0795C88.5093 17.8953 89.3348 17.2235 90.4053 16.8107C91.4276 16.3455 92.61 16.0875 93.8245 16.0648C94.7779 16.0455 95.7268 16.1629 96.6148 16.4097L95.1991 18.8739C94.5606 18.7233 93.8897 18.655 93.2177 18.6723C91.8527 18.6772 90.5536 19.0885 89.6374 19.8058C88.5989 20.5615 88.0796 21.5509 88.0796 22.774L88.0826 30.4599ZM106.815 30.9079C103.822 30.9079 101.388 30.2008 99.5157 28.7867C97.6429 27.3727 96.7054 25.5885 96.7032 23.435C96.6483 21.496 97.6227 19.6132 99.4335 18.1595C101.168 16.7125 103.733 15.9004 106.411 15.9504C109.35 15.9504 111.703 16.6292 113.47 17.9867C115.238 19.3442 116.121 21.1602 116.118 23.4347L116.077 23.9231H100.419C100.526 25.3373 101.194 26.4575 102.422 27.2833C103.571 28.0825 105.12 28.5257 106.729 28.5154C109.398 28.5154 111.205 27.7124 112.149 26.1072L115.467 27.0817C114.794 28.1926 113.685 29.1429 112.272 29.8192C110.787 30.545 108.968 30.9079 106.814 30.9079L106.815 30.9079ZM112.156 21.7233C112.076 20.9199 111.557 20.1552 110.598 19.4294C109.639 18.7035 108.214 18.3482 106.322 18.3631C105.01 18.3468 103.736 18.6738 102.742 19.2816C101.701 19.9282 100.973 20.7901 100.66 21.7457L112.156 21.7233ZM129.568 30.9079C128.159 30.9277 126.766 30.6967 125.516 30.2359C124.419 29.8435 123.49 29.2493 122.827 28.5155H122.666V30.4599H119.105V9.92894H122.827V16.4097L122.666 18.3587H122.827C123.49 17.6248 124.419 17.0306 125.516 16.6382C126.764 16.1721 128.157 15.9356 129.568 15.9505C132.129 15.9505 134.341 16.6674 136.204 18.1011C138.066 19.5348 138.996 21.3127 138.994 23.4348C138.992 25.557 138.064 27.3349 136.204 28.7686C134.343 30.2023 132.131 30.9154 129.568 30.9079ZM128.961 28.4998C130.657 28.5093 132.277 28.0028 133.41 27.1086C134.651 26.1812 135.271 24.9529 135.271 23.4236C135.271 21.8943 134.651 20.666 133.41 19.7385C132.264 18.8551 130.649 18.3512 128.955 18.3487C127.262 18.3461 125.644 18.8451 124.493 19.725C123.266 20.642 122.653 21.8748 122.653 23.4235C122.653 24.9722 123.273 26.2088 124.511 27.1332C125.652 28.024 127.276 28.5256 128.973 28.5109L128.961 28.4998ZM148.471 30.9079C146.364 30.9079 144.605 30.4778 143.194 29.6176C141.782 28.7575 141.074 27.6202 141.07 26.2059C141.07 24.6766 141.906 23.4774 143.579 22.6082C145.252 21.739 147.314 21.3044 149.767 21.3044C151.951 21.3044 153.742 21.5912 155.139 22.1646V21.7637C155.192 20.8193 154.642 19.9082 153.641 19.2838C152.622 18.6616 151.31 18.333 149.966 18.3631C148.937 18.354 147.923 18.5418 147.033 18.9075C146.199 19.235 145.56 19.7647 145.232 20.3994L141.835 19.3667C142.294 18.5229 143.198 17.7403 144.551 17.019C145.903 16.2977 147.679 15.9393 149.891 15.9438C152.419 15.9438 154.526 16.4665 156.211 17.5118C157.896 18.5572 158.733 20.0387 158.72 21.9563V30.4599H155.149V28.511H154.988C153.503 30.109 151.332 30.9049 148.475 30.9049L148.471 30.9079ZM149.078 28.4998C150.642 28.4959 152.143 28.0632 153.268 27.2923C154.466 26.5761 155.16 25.5226 155.164 24.4115C154.111 23.7991 152.531 23.493 150.424 23.493C148.616 23.493 147.254 23.77 146.338 24.3241C145.483 24.7901 144.976 25.5084 144.963 26.273C144.946 26.9384 145.427 27.5609 146.228 27.9083C147.07 28.3095 148.064 28.5197 149.078 28.5109V28.4997L149.078 28.4998ZM169.665 30.9079C167.453 30.9079 165.627 30.5256 164.186 29.761C162.784 29.0269 161.691 28.0355 161.026 26.8936L164.344 25.9191C165.397 27.6784 167.188 28.558 169.716 28.558C170.72 28.5872 171.713 28.3972 172.56 28.0137C173.258 27.7062 173.68 27.1628 173.672 26.58C173.672 25.663 172.769 25.0417 170.957 24.7161L166.953 24.0284C165.635 23.7813 164.408 23.3367 163.354 22.7247C162.231 22.1042 161.599 21.1388 161.654 20.1306C161.654 18.8881 162.429 17.88 163.979 17.1063C165.601 16.3171 167.533 15.911 169.5 15.9459C171.142 15.9273 172.761 16.2205 174.189 16.795C175.538 17.3377 176.58 18.1939 177.141 19.2188L173.908 20.1552C173.181 18.9128 171.671 18.2914 169.377 18.2914C168.401 18.2683 167.435 18.4374 166.586 18.7797C165.891 19.0351 165.455 19.544 165.455 20.0992C165.455 20.9026 166.331 21.4478 168.084 21.7345L172.006 22.3953C173.866 22.694 175.242 23.2167 176.133 23.9634C176.996 24.661 177.47 25.558 177.466 26.4858C177.484 27.7229 176.674 28.8928 175.283 29.64C173.827 30.4852 171.953 30.9079 169.661 30.9079L169.665 30.9079ZM189.687 30.9079C186.694 30.9079 184.26 30.2008 182.388 28.7867C180.515 27.3727 179.577 25.5846 179.575 23.4236C179.52 21.4846 180.494 19.6018 182.305 18.1481C184.046 16.7047 186.614 15.8969 189.292 15.9505C192.241 15.9505 194.595 16.6293 196.352 17.9868C198.109 19.3443 198.991 21.1603 199 23.4348L198.959 23.9232H183.288C183.395 25.3374 184.063 26.4575 185.291 27.2834C186.443 28.0826 187.996 28.5243 189.608 28.511C192.277 28.511 194.083 27.7079 195.027 26.1028L198.345 27.0772C197.673 28.1882 196.564 29.1385 195.151 29.8147C193.665 30.5435 191.844 30.9079 189.687 30.9079L189.687 30.9079ZM195.028 21.7233C194.948 20.9199 194.428 20.1552 193.47 19.4294C192.511 18.7035 191.088 18.3482 189.201 18.3631C187.889 18.347 186.614 18.674 185.62 19.2816C184.579 19.9282 183.851 20.7901 183.538 21.7457L195.028 21.7233Z" fill="white"/>
<path d="M0.353516 32.036L7.19852 0.754731C7.2822 0.371095 7.69997 0.0686709 8.23595 0.0036406C8.77194 -0.0613897 9.30606 0.125701 9.56234 0.468095L16.6413 9.89758L19.4629 6.06076C19.6814 5.76409 20.1122 5.57834 20.5816 5.57834C21.051 5.57834 21.4818 5.76409 21.7004 6.06076L40.8038 32.0359L0.353516 32.036Z" fill="#FFA000"/>
<path d="M24.0013 19.8507L16.638 9.89307L0.353516 32.0359L24.0013 19.8507Z" fill="#F57C00"/>
<path d="M40.8041 32.0359L35.5613 8.86616C35.4821 8.53343 35.1496 8.2601 34.6993 8.15707C34.2491 8.05404 33.7563 8.1398 33.4219 8.37834L0.353516 32.0356L18.6511 39.3639C19.8001 39.8221 21.1995 39.8221 22.3485 39.3639L40.8041 32.0356V32.0359Z" fill="#FFCA28"/>
<path d="M35.5614 8.86616C35.4822 8.53343 35.1497 8.2601 34.6994 8.15707C34.2492 8.05404 33.7564 8.1398 33.422 8.37834L26.8587 13.0776L21.6976 6.06058C21.4791 5.76392 21.0483 5.57816 20.5789 5.57816C20.1095 5.57816 19.6787 5.76392 19.4602 6.06058L16.6385 9.8974L9.55925 0.46807C9.30254 0.125585 8.76779 -0.0612032 8.23116 0.0043119C7.69454 0.069827 7.27817 0.373009 7.19543 0.756948L0.353607 32.0359H0.331543L0.353607 32.054L0.533725 32.1172L33.4124 8.60886C33.7467 8.36901 34.2407 8.2828 34.6921 8.38552C35.1436 8.48825 35.4767 8.76264 35.5551 9.09634L40.7536 32.0585L40.8042 32.0359L35.5614 8.86616ZM0.413647 31.9931L7.19861 0.97816C7.28127 0.594221 7.69862 0.291039 8.23477 0.225524C8.77093 0.160009 9.30572 0.346736 9.56285 0.689282L16.6414 10.1188L19.463 6.28195C19.6815 5.98528 20.1123 5.79952 20.5817 5.79952C21.0511 5.79952 21.4819 5.98528 21.7005 6.28195L26.7568 13.1498L0.413647 31.9931Z" fill="white" fill-opacity="0.2"/>
<path opacity="0.2" d="M22.3485 39.143C21.1995 39.6012 19.8001 39.6012 18.6511 39.143L0.397771 31.8351L0.353516 32.036L18.6511 39.3621C19.8001 39.8203 21.1995 39.8203 22.3485 39.3621L40.8041 32.036L40.7567 31.8284L22.3485 39.143Z" fill="#A52714"/>
<path d="M35.509 8.87096C35.4301 8.53832 35.0987 8.2649 34.65 8.16248C34.2014 8.06005 33.7103 8.1452 33.377 8.38369L26.8363 13.0806L21.6937 6.06681C21.4759 5.77026 21.0466 5.58457 20.5789 5.58457C20.1112 5.58457 19.6819 5.77026 19.4641 6.06681L16.6519 9.90196L9.59783 0.476537C9.34198 0.134203 8.80913 -0.0525541 8.27485 0.0129913C7.74056 0.0785367 7.32465 0.381476 7.24229 0.765325L0.424316 32.0306L18.6579 39.3534C19.8029 39.8114 21.1974 39.8114 22.3424 39.3534L40.7335 32.0306L35.509 8.8709V8.87096Z" fill="url(#paint0_linear_16_104)"/>
</g>
<defs>
<linearGradient id="paint0_linear_16_104" x1="-140.255" y1="675.642" x2="4020.05" y2="3748.43" gradientUnits="userSpaceOnUse">
<stop stop-color="white" stop-opacity="0.1"/>
<stop offset="0.14" stop-color="white" stop-opacity="0.08"/>
<stop offset="0.61" stop-color="white" stop-opacity="0.02"/>
<stop offset="1" stop-color="white" stop-opacity="0"/>
</linearGradient>
<clipPath id="clip0_16_104">
<rect width="199" height="40" fill="white"/>
</clipPath>
</defs>
</svg>
