<svg width="40" height="40" viewBox="0 0 40 40" fill="none" xmlns="http://www.w3.org/2000/svg">
<g clip-path="url(#clip0_14_129)">
<path d="M4.41258 5.22745C4.33711 2.50784 6.02563 0 8.30797 0H31.6949C33.9773 0 35.6658 2.50784 35.5903 5.22745C35.5178 7.8399 35.612 11.224 36.2906 13.9833C36.9715 16.7512 38.1196 18.5007 40 18.7255V21.2745C38.1196 21.4993 36.9715 23.2488 36.2906 26.0167C35.612 28.776 35.5178 32.1601 35.5903 34.7726C35.6658 37.4922 33.9773 40 31.6949 40H8.30797C6.02563 40 4.33711 37.4922 4.41266 34.7726C4.48508 32.1601 4.39094 28.776 3.71219 26.0167C3.03141 23.2488 1.88047 21.4993 0 21.2745V18.7255C1.88039 18.5007 3.03141 16.7512 3.71219 13.9833C4.39094 11.224 4.48508 7.8399 4.41258 5.22745Z" fill="url(#paint0_linear_14_129)"/>
<g filter="url(#filter0_d_14_129)">
<path d="M20.8673 30.633C24.5624 30.633 26.7891 28.3626 26.7891 24.6178C26.7891 21.7871 25.2003 19.7378 22.8412 19.4134V19.2955C24.5745 18.9417 25.9345 16.9219 25.9345 14.6662C25.9345 11.4521 23.9125 9.35852 20.8312 9.35852H13.8984V30.633H20.8673ZM16.5945 12.0566H20.1813C22.1312 12.0566 23.2384 13.1475 23.2384 15.1231C23.2384 17.2315 21.9506 18.4109 19.6156 18.4109H16.5945V12.0566ZM16.5945 27.9351V20.9321H20.1572C22.7088 20.9321 24.0328 22.1115 24.0328 24.4115C24.0328 26.7114 22.745 27.9351 20.3137 27.9351H16.5945Z" fill="url(#paint1_linear_14_129)"/>
<path d="M20.8673 30.633C24.5624 30.633 26.7891 28.3626 26.7891 24.6178C26.7891 21.7871 25.2003 19.7378 22.8412 19.4134V19.2955C24.5745 18.9417 25.9345 16.9219 25.9345 14.6662C25.9345 11.4521 23.9125 9.35852 20.8312 9.35852H13.8984V30.633H20.8673ZM16.5945 12.0566H20.1813C22.1312 12.0566 23.2384 13.1475 23.2384 15.1231C23.2384 17.2315 21.9506 18.4109 19.6156 18.4109H16.5945V12.0566ZM16.5945 27.9351V20.9321H20.1572C22.7088 20.9321 24.0328 22.1115 24.0328 24.4115C24.0328 26.7114 22.745 27.9351 20.3137 27.9351H16.5945Z" stroke="white"/>
</g>
</g>
<defs>
<filter id="filter0_d_14_129" x="-2.60156" y="-3.14148" width="45.8906" height="54.2745" filterUnits="userSpaceOnUse" color-interpolation-filters="sRGB">
<feFlood flood-opacity="0" result="BackgroundImageFix"/>
<feColorMatrix in="SourceAlpha" type="matrix" values="0 0 0 0 0 0 0 0 0 0 0 0 0 0 0 0 0 0 127 0" result="hardAlpha"/>
<feOffset dy="4"/>
<feGaussianBlur stdDeviation="8"/>
<feColorMatrix type="matrix" values="0 0 0 0 0 0 0 0 0 0 0 0 0 0 0 0 0 0 0.15 0"/>
<feBlend mode="normal" in2="BackgroundImageFix" result="effect1_dropShadow_14_129"/>
<feBlend mode="normal" in="SourceGraphic" in2="effect1_dropShadow_14_129" result="shape"/>
</filter>
<linearGradient id="paint0_linear_14_129" x1="5.94367" y1="1.05863" x2="46.6383" y2="26.8004" gradientUnits="userSpaceOnUse">
<stop stop-color="#9013FE"/>
<stop offset="1" stop-color="#6610F2"/>
</linearGradient>
<linearGradient id="paint1_linear_14_129" x1="15.1177" y1="10.7588" x2="25.8269" y2="25.1914" gradientUnits="userSpaceOnUse">
<stop stop-color="white"/>
<stop offset="1" stop-color="#F1E5FC"/>
</linearGradient>
<clipPath id="clip0_14_129">
<rect width="40" height="40" fill="white"/>
</clipPath>
</defs>
</svg>
