<svg width="40" height="40" viewBox="0 0 40 40" fill="none" xmlns="http://www.w3.org/2000/svg">
<g clip-path="url(#clip0_14_132)">
<path d="M40 0H0V40H40V0Z" fill="#F7DF1E"/>
<path d="M10.5176 33.4269L13.5787 31.5743C14.1692 32.6214 14.7065 33.5073 15.995 33.5073C17.2302 33.5073 18.0089 33.0241 18.0089 31.1447V18.3638H21.7679V31.1979C21.7679 35.0912 19.4858 36.8634 16.1562 36.8634C13.1491 36.8634 11.4036 35.306 10.5176 33.4265" fill="black"/>
<path d="M23.8096 33.0241L26.8703 31.2519C27.676 32.5677 28.7231 33.5343 30.5758 33.5343C32.1333 33.5343 33.1265 32.7556 33.1265 31.6815C33.1265 30.3927 32.1062 29.9362 30.3877 29.1846L29.4482 28.7816C26.7362 27.6273 24.9371 26.1773 24.9371 23.1164C24.9371 20.2971 27.0851 18.1489 30.4416 18.1489C32.8312 18.1489 34.5496 18.9814 35.7846 21.1563L32.8579 23.0358C32.2135 21.8813 31.5155 21.4249 30.4416 21.4249C29.3407 21.4249 28.6425 22.123 28.6425 23.0358C28.6425 24.1635 29.3407 24.62 30.9516 25.3182L31.8912 25.7209C35.0865 27.0904 36.8855 28.4865 36.8855 31.6278C36.8855 35.0112 34.2273 36.8637 30.6563 36.8637C27.1658 36.8637 24.9103 35.1991 23.8096 33.0241Z" fill="black"/>
</g>
<defs>
<clipPath id="clip0_14_132">
<rect width="40" height="40" fill="white"/>
</clipPath>
</defs>
</svg>
