<svg width="59" height="23" viewBox="0 0 59 23" fill="none" xmlns="http://www.w3.org/2000/svg">
<path d="M1.08021 0.0489848L0 22.5009H4.57396L5.15625 13.1459L8.06562 22.5009H12.7229L15.3833 13.4271L15.8823 22.5009H20.625L19.2927 0.0489848H14.5521L10.3125 13.7986L5.90312 0.0489848H1.08021ZM30.351 0.0489848H25.3615V22.5009H30.351C30.351 22.5009 40.2469 22.5947 40.1635 11.2755C40.0823 0.235312 30.3531 0.0513272 30.3531 0.0513272L30.351 0.0489848ZM30.226 17.2123V5.24859C30.226 5.24859 35.0177 5.74899 35.101 11.1748C35.1844 16.6005 30.2281 17.2146 30.2281 17.2146L30.226 17.2123ZM55.0479 8.51227C55.7952 7.1766 56.0909 5.5833 55.8812 4.02281C55.325 -0.167812 50.1437 0.000937448 50.1437 0.000937448H44.7375V22.4517H49.4792C49.4792 22.4517 58.5417 23.0131 58.5417 14.9693C58.5417 9.91383 55.05 8.51461 55.05 8.51461L55.0479 8.51227ZM49.6417 4.7693C49.6417 4.7693 51.0552 4.58297 51.3083 5.89313C51.4573 6.67359 50.8917 7.29938 50.8917 7.29938H49.6417V4.77164V4.7693ZM49.6312 17.5966L49.6417 14.6763V12.54H49.65C49.65 12.54 53.9812 11.9857 53.9406 15.1685C53.9062 18.1744 49.6333 17.599 49.6333 17.599L49.6312 17.5966Z" fill="#3887DC"/>
</svg>
