<svg width="45" height="45" viewBox="0 0 45 45" fill="none" xmlns="http://www.w3.org/2000/svg">
<path d="M22.5 9.18457C34.5516 9.18457 43.8188 15.5303 43.8188 22.5C43.8188 29.4697 34.5445 35.8154 22.5 35.8154C10.4484 35.8154 1.18125 29.4697 1.18125 22.5C1.18125 15.5303 10.4555 9.18457 22.5 9.18457ZM22.5 7.70801C10.0758 7.70801 0 14.3262 0 22.5C0 30.6738 10.0758 37.292 22.5 37.292C34.9242 37.292 45 30.6738 45 22.5C45 14.3262 34.9242 7.70801 22.5 7.70801ZM15.3422 21.3135C14.7867 24.873 12.825 24.5039 10.4133 24.5039L11.3766 18.2988C14.0484 18.2988 15.8625 17.9385 15.3422 21.3135ZM6.84844 30.7881H9.42891L10.0406 26.8506C12.9305 26.8506 14.7234 27.1143 16.3828 25.1719C18.218 23.0625 18.6961 19.3096 17.3883 17.4287C16.7063 16.4443 15.6094 15.9609 14.1188 15.9609H9.14766L6.84844 30.7881ZM19.9055 12.0146H22.4719L21.8602 15.9521C24.075 15.9521 26.1281 15.75 27.1195 16.8926C28.1602 18.0879 27.6609 19.6172 26.5359 26.833H23.9344C25.0172 19.8545 25.2211 19.2744 24.8273 18.7471C24.4477 18.2373 23.5828 18.3428 21.4945 18.3428L20.1727 26.833H17.6062L19.9055 12.0146ZM35.5078 21.3135C34.9453 24.9258 32.9273 24.5039 30.5789 24.5039L31.5422 18.2988C34.2281 18.2988 36.0281 17.9385 35.5078 21.3135ZM27.0141 30.7881H29.6016L30.2133 26.8506C33.2508 26.8506 34.9313 27.0703 36.5555 25.1719C38.3906 23.0625 38.8688 19.3096 37.5609 17.4287C36.8789 16.4443 35.782 15.9609 34.2914 15.9609H29.3203L27.0141 30.7881Z" fill="#8993BE"/>
</svg>
