<svg width="50" height="50" viewBox="0 0 50 50" fill="none" xmlns="http://www.w3.org/2000/svg">
<g clip-path="url(#clip0_81_1020)">
<path d="M25 0C18.3358 0 14.1708 5.55567 12.5046 16.666C15.004 11.1103 17.9195 9.02771 21.2513 10.4161C23.1525 11.2083 24.5113 13.5087 26.0156 16.0541C28.4656 20.2005 31.3011 24.9995 37.4954 24.9995C44.159 24.9995 48.3245 19.4438 49.9901 8.33247C47.4914 13.8881 44.5758 15.9718 41.2434 14.5834C39.3428 13.7912 37.9841 11.4908 36.4798 8.94536C34.0298 4.79893 31.1936 0 25 0ZM12.5046 24.9995C5.84102 24.9995 1.67549 30.5552 0.00989532 41.6665C2.50859 36.1108 5.42416 34.0272 8.75659 35.4166C10.6572 36.2098 12.0159 38.5092 13.5202 41.0536C15.9702 45.2 18.8064 50 25 50C31.6642 50 35.8291 44.4443 37.4954 33.333C34.996 38.8887 32.0805 40.9723 28.7487 39.5829C26.8475 38.7917 25.4887 36.4902 23.9844 33.9459C21.5344 29.7995 18.6989 24.9995 12.5046 24.9995Z" fill="#06B6D4"/>
</g>
<defs>
<clipPath id="clip0_81_1020">
<rect width="50" height="50" fill="white"/>
</clipPath>
</defs>
</svg>
